<!DOCTYPE svg PUBLIC "-//W3C//DTD SVG 1.1//EN" "http://www.w3.org/Graphics/SVG/1.1/DTD/svg11.dtd">
<!-- Uploaded to: SVG Repo, www.svgrepo.com, Transformed by: SVG Repo Mixer Tools -->
<svg fill="#ffffff" width="800px" height="800px" viewBox="0 0 1024 1024" xmlns="http://www.w3.org/2000/svg" stroke="#ffffff">
<g id="SVGRepo_bgCarrier" stroke-width="0"/>
<g id="SVGRepo_tracerCarrier" stroke-linecap="round" stroke-linejoin="round" stroke="#CCCCCC" stroke-width="2.048"/>
<g id="SVGRepo_iconCarrier">
<path d="M126.03 744.104H72.219c-17.312 0-31.263-13.802-31.263-30.72v-488.11c0-16.912 13.955-30.72 31.263-30.72h879.565c17.311 0 31.252 13.801 31.252 30.72v488.11c0 16.926-13.937 30.72-31.252 30.72h-42.639c-11.311 0-20.48 9.169-20.48 20.48s9.169 20.48 20.48 20.48h42.639c39.843 0 72.212-32.038 72.212-71.68v-488.11c0-39.635-32.373-71.68-72.212-71.68H72.219c-39.833 0-72.223 32.049-72.223 71.68v488.11c0 39.639 32.387 71.68 72.223 71.68h53.811c11.311 0 20.48-9.169 20.48-20.48s-9.169-20.48-20.48-20.48z"/>
<path d="M693.76 744.104H334.848c-11.311 0-20.48 9.169-20.48 20.48s9.169 20.48 20.48 20.48H693.76c11.311 0 20.48-9.169 20.48-20.48s-9.169-20.48-20.48-20.48zM993.28 467.83h-97.812c-16.962 0-30.72-13.758-30.72-30.72V193.531c0-11.311-9.169-20.48-20.48-20.48s-20.48 9.169-20.48 20.48V437.11c0 39.583 32.097 71.68 71.68 71.68h97.812c11.311 0 20.48-9.169 20.48-20.48s-9.169-20.48-20.48-20.48z"/>
<path d="M884.53 764.584c0-45.238-36.679-81.92-81.92-81.92-45.234 0-81.92 36.686-81.92 81.92 0 45.241 36.682 81.92 81.92 81.92 45.245 0 81.92-36.675 81.92-81.92zm40.96 0c0 67.866-55.014 122.88-122.88 122.88-67.859 0-122.88-55.017-122.88-122.88 0-67.856 55.024-122.88 122.88-122.88 67.863 0 122.88 55.021 122.88 122.88zm-611.12 0c0-45.234-36.686-81.92-81.92-81.92-45.241 0-81.92 36.682-81.92 81.92 0 45.245 36.675 81.92 81.92 81.92 45.238 0 81.92-36.679 81.92-81.92zm40.96 0c0 67.863-55.021 122.88-122.88 122.88-67.866 0-122.88-55.014-122.88-122.88 0-67.859 55.017-122.88 122.88-122.88 67.856 0 122.88 55.024 122.88 122.88z"/>
<path d="M698.03 745.894H334.848c-11.311 0-20.48 9.169-20.48 20.48s9.169 20.48 20.48 20.48H698.03c11.311 0 20.48-9.169 20.48-20.48s-9.169-20.48-20.48-20.48zm305.49-156.07h-84.746c-11.311 0-20.48 9.169-20.48 20.48s9.169 20.48 20.48 20.48h84.746c11.311 0 20.48-9.169 20.48-20.48s-9.169-20.48-20.48-20.48zM725.76 468.085V292.633h-102.4v175.452h102.4zm0 40.96h-102.4c-22.616 0-40.96-18.344-40.96-40.96V292.633c0-22.624 18.342-40.96 40.96-40.96h102.4c22.618 0 40.96 18.336 40.96 40.96v175.452c0 22.616-18.344 40.96-40.96 40.96zm-243.825-40.96V292.633h-102.4v175.452h102.4zm0 40.96h-102.4c-22.616 0-40.96-18.344-40.96-40.96V292.633c0-22.624 18.342-40.96 40.96-40.96h102.4c22.618 0 40.96 18.336 40.96 40.96v175.452c0 22.616-18.344 40.96-40.96 40.96zm-243.825-40.96V292.633h-102.4v175.452h102.4zm0 40.96h-102.4c-22.616 0-40.96-18.344-40.96-40.96V292.633c0-22.624 18.342-40.96 40.96-40.96h102.4c22.618 0 40.96 18.336 40.96 40.96v175.452c0 22.616-18.344 40.96-40.96 40.96z"/>
</g>
</svg>