<!DOCTYPE svg PUBLIC "-//W3C//DTD SVG 1.1//EN" "http://www.w3.org/Graphics/SVG/1.1/DTD/svg11.dtd">
<!-- Uploaded to: SVG Repo, www.svgrepo.com, Transformed by: SVG Repo Mixer Tools -->
<svg height="800px" width="800px" version="1.1" id="_x32_" xmlns="http://www.w3.org/2000/svg" xmlns:xlink="http://www.w3.org/1999/xlink" viewBox="0 0 512 512" xml:space="preserve" fill="#000000">
<g id="SVGRepo_bgCarrier" stroke-width="0"/>
<g id="SVGRepo_tracerCarrier" stroke-linecap="round" stroke-linejoin="round"/>
<g id="SVGRepo_iconCarrier"> <style type="text/css"> .st0{fill:#ffffff;} </style> <g> <path class="st0" d="M256,0c-23.357,0-42.297,18.932-42.297,42.288c0,23.358,18.94,42.288,42.297,42.288 c23.357,0,42.279-18.93,42.279-42.288C298.279,18.932,279.357,0,256,0z"/> <path class="st0" d="M256,427.424c-23.357,0-42.297,18.931-42.297,42.288C213.703,493.07,232.643,512,256,512 c23.357,0,42.279-18.93,42.279-42.288C298.279,446.355,279.357,427.424,256,427.424z"/> <path class="st0" d="M74.974,74.983c-16.52,16.511-16.52,43.286,0,59.806c16.52,16.52,43.287,16.52,59.806,0 c16.52-16.511,16.52-43.286,0-59.806C118.261,58.463,91.494,58.463,74.974,74.983z"/> <path class="st0" d="M377.203,377.211c-16.503,16.52-16.503,43.296,0,59.815c16.519,16.52,43.304,16.52,59.806,0 c16.52-16.51,16.52-43.295,0-59.815C420.489,360.692,393.722,360.7,377.203,377.211z"/> <path class="st0" d="M84.567,256c0.018-23.348-18.922-42.279-42.279-42.279c-23.357-0.009-42.297,18.932-42.279,42.288 c-0.018,23.348,18.904,42.279,42.279,42.279C65.645,298.288,84.567,279.358,84.567,256z"/> <path class="st0" d="M469.712,213.712c-23.357,0-42.279,18.941-42.297,42.288c0,23.358,18.94,42.288,42.297,42.297 c23.357,0,42.297-18.94,42.279-42.297C512.009,232.652,493.069,213.712,469.712,213.712z"/> <path class="st0" d="M74.991,377.22c-16.519,16.511-16.519,43.296,0,59.806c16.503,16.52,43.27,16.52,59.789,0 c16.52-16.519,16.52-43.295,0-59.815C118.278,360.692,91.511,360.692,74.991,377.22z"/> <path class="st0" d="M437.026,134.798c16.52-16.52,16.52-43.304,0-59.824c-16.519-16.511-43.304-16.52-59.823,0 c-16.52,16.52-16.503,43.295,0,59.815C393.722,151.309,420.507,151.309,437.026,134.798z"/> </g> </g>
</svg>